<svg width="44" height="44" viewBox="0 0 44 44" fill="none" xmlns="http://www.w3.org/2000/svg">
<circle cx="22" cy="22" r="22" fill="#993E49"/>
<path d="M10.982 16.939V26H9.799V21.892H5.184V26H4.001V16.939H5.184V20.917H9.799V16.939H10.982ZM17.11 26.091C16.2693 26.091 15.5023 25.896 14.809 25.506C14.1156 25.1073 13.5653 24.557 13.158 23.855C12.7593 23.1443 12.56 22.347 12.56 21.463C12.56 20.579 12.7593 19.786 13.158 19.084C13.5653 18.3733 14.1156 17.823 14.809 17.433C15.5023 17.0343 16.2693 16.835 17.11 16.835C17.9593 16.835 18.7306 17.0343 19.424 17.433C20.1173 17.823 20.6633 18.369 21.062 19.071C21.4606 19.773 21.66 20.5703 21.66 21.463C21.66 22.3557 21.4606 23.153 21.062 23.855C20.6633 24.557 20.1173 25.1073 19.424 25.506C18.7306 25.896 17.9593 26.091 17.11 26.091ZM17.11 25.064C17.7426 25.064 18.3103 24.9167 18.813 24.622C19.3243 24.3273 19.723 23.907 20.009 23.361C20.3036 22.815 20.451 22.1823 20.451 21.463C20.451 20.735 20.3036 20.1023 20.009 19.565C19.723 19.019 19.3286 18.5987 18.826 18.304C18.3233 18.0093 17.7513 17.862 17.11 17.862C16.4686 17.862 15.8966 18.0093 15.394 18.304C14.8913 18.5987 14.4926 19.019 14.198 19.565C13.912 20.1023 13.769 20.735 13.769 21.463C13.769 22.1823 13.912 22.815 14.198 23.361C14.4926 23.907 14.8913 24.3273 15.394 24.622C15.9053 24.9167 16.4773 25.064 17.11 25.064ZM32.4127 17.004V26H31.2297V19.292L28.2397 26H27.4077L24.4047 19.279V26H23.2217V17.004H24.4957L27.8237 24.44L31.1517 17.004H32.4127ZM35.602 17.901V20.93H38.904V21.905H35.602V25.025H39.294V26H34.419V16.926H39.294V17.901H35.602Z" fill="white"/>
</svg>
