<svg width="46" height="66" viewBox="0 0 46 66" fill="none" xmlns="http://www.w3.org/2000/svg">
<circle cx="23" cy="36" r="23" fill="#E8F1F3"/>
<path d="M16.784 48H15.816V40.432H16.916C18.06 44.568 20.1427 46.636 23.164 46.636C24.3373 46.636 25.2613 46.3573 25.936 45.8C26.64 45.2133 26.992 44.3333 26.992 43.16C26.992 42.72 26.9187 42.3533 26.772 42.06C26.6547 41.7373 26.4053 41.4147 26.024 41.092C25.672 40.74 25.1587 40.344 24.484 39.904C23.8387 39.464 22.9733 38.9067 21.888 38.232C20.8907 37.616 20.0253 37.044 19.292 36.516C18.5587 35.988 17.9427 35.46 17.444 34.932C16.9453 34.3747 16.564 33.788 16.3 33.172C16.0653 32.556 15.948 31.8373 15.948 31.016C15.948 30.0187 16.1093 29.1093 16.432 28.288C16.784 27.4373 17.2533 26.7187 17.84 26.132C18.4267 25.5453 19.116 25.0907 19.908 24.768C20.7 24.416 21.5653 24.24 22.504 24.24C23.296 24.24 24.1173 24.372 24.968 24.636C25.8187 24.8707 26.5667 25.1933 27.212 25.604L28.092 24.68H28.928V31.016H27.784C27.1387 29.2267 26.4347 27.9507 25.672 27.188C24.9093 26.4253 23.9707 26.044 22.856 26.044C21.8587 26.044 21.052 26.308 20.436 26.836C19.8493 27.364 19.556 28.0973 19.556 29.036C19.556 29.5347 19.6293 29.9747 19.776 30.356C19.952 30.708 20.216 31.06 20.568 31.412C20.92 31.764 21.36 32.1307 21.888 32.512C22.4453 32.864 23.1053 33.2747 23.868 33.744C25.1293 34.536 26.2 35.24 27.08 35.856C27.9893 36.472 28.7227 37.088 29.28 37.704C29.8373 38.2907 30.248 38.9067 30.512 39.552C30.776 40.1973 30.908 40.9307 30.908 41.752C30.908 43.8347 30.2333 45.4773 28.884 46.68C27.5347 47.8533 25.76 48.44 23.56 48.44C21.272 48.44 19.3067 47.78 17.664 46.46L16.784 48Z" fill="#333333"/>
</svg>
