<svg width="25" height="25" viewBox="0 0 25 25" fill="none" xmlns="http://www.w3.org/2000/svg">
<path d="M9.51318 3.79755C11.2371 3.79755 12.8904 4.48237 14.1094 5.70135C15.3284 6.92034 16.0132 8.57364 16.0132 10.2975C16.0132 11.9075 15.4232 13.3875 14.4532 14.5275L14.7232 14.7975H15.5132L20.5132 19.7975L19.0132 21.2975L14.0132 16.2975V15.5075L13.7432 15.2375C12.6032 16.2075 11.1232 16.7975 9.51318 16.7975C7.78928 16.7975 6.13598 16.1127 4.91699 14.8937C3.698 13.6748 3.01318 12.0215 3.01318 10.2975C3.01318 8.57364 3.698 6.92034 4.91699 5.70135C6.13598 4.48237 7.78928 3.79755 9.51318 3.79755ZM9.51318 5.79755C7.01318 5.79755 5.01318 7.79755 5.01318 10.2975C5.01318 12.7975 7.01318 14.7975 9.51318 14.7975C12.0132 14.7975 14.0132 12.7975 14.0132 10.2975C14.0132 7.79755 12.0132 5.79755 9.51318 5.79755Z" fill="#333333"/>
</svg>
