<svg xmlns="http://www.w3.org/2000/svg" height="20" viewBox="0 -960 960 960" width="20"><path d="M731-137 476-391l-76 78q5 15 8 28.688 3 13.688 3 27.876 0 67.374-45.544 113.405Q319.911-97 251.956-97q-66.306 0-112.131-46.044Q94-189.089 94-256.044 94-323 139.531-369t112.905-46q14.188 0 27.876 3.5t28.826 8.5L386-479l-76.862-78q-15.138 5-28.826 8t-27.876 3q-67.374 0-112.905-46.044Q94-638.089 94-705.044 94-772 139.544-818q45.545-46 112.5-46Q319-864 365-817.969t46 113.405q0 14.188-3 27.876t-8 28.452L866-184v47H731ZM610-521l-92-91 213-212h136v47L610-521ZM252.46-629q31.54 0 54.04-22.46t22.5-54Q329-737 306.332-759t-54.5-22Q220-781 198-758.54t-22 54Q176-673 198.46-651t54 22ZM477-436q19.1 0 32.05-12.95Q522-461.9 522-481q0-19.1-12.95-32.05Q496.1-526 477-526q-19.1 0-32.05 12.95Q432-500.1 432-481q0 19.1 12.95 32.05Q457.9-436 477-436ZM252.46-180q31.54 0 54.04-22.46t22.5-54Q329-288 306.332-310t-54.5-22Q220-332 198-309.54t-22 54Q176-224 198.46-202t54 22Z"/></svg>