<svg width="44" height="44" viewBox="0 0 44 44" fill="none" xmlns="http://www.w3.org/2000/svg">
<rect width="44" height="44" rx="22" fill="#BB616C"/>
<mask id="mask0_851_621" style="mask-type:alpha" maskUnits="userSpaceOnUse" x="2" y="2" width="40" height="40">
<rect x="2" y="2" width="40" height="40" fill="white"/>
</mask>
<g mask="url(#mask0_851_621)">
<path d="M32.4 34L23.7556 25.3556C23.0889 25.9185 22.3151 26.3593 21.4342 26.6778C20.5534 26.9963 19.616 27.1556 18.6222 27.1556C16.2124 27.1556 14.1729 26.3204 12.5038 24.65C10.8346 22.9796 10 20.9556 10 18.5778C10 16.2 10.8352 14.1759 12.5056 12.5056C14.1759 10.8352 16.2037 10 18.5889 10C20.9741 10 22.9981 10.8352 24.6611 12.5056C26.3241 14.1759 27.1556 16.2011 27.1556 18.5811C27.1556 19.5419 27 20.463 26.6889 21.3445C26.3778 22.2259 25.9259 23.037 25.3333 23.7778L34 32.4L32.4 34ZM18.6 24.9334C20.3593 24.9334 21.8546 24.313 23.0861 23.0722C24.3176 21.8315 24.9333 20.3334 24.9333 18.5778C24.9333 16.8222 24.3176 15.3241 23.0861 14.0833C21.8546 12.8426 20.3593 12.2222 18.6 12.2222C16.8284 12.2222 15.3225 12.8426 14.0824 14.0833C12.8423 15.3241 12.2222 16.8222 12.2222 18.5778C12.2222 20.3334 12.8423 21.8315 14.0824 23.0722C15.3225 24.313 16.8284 24.9334 18.6 24.9334Z" fill="white"/>
</g>
</svg>
